name rise36.2859peak64.2979fall75.1499.mot
datacolumns 19
datarows 59
range 18.756596 18.853266
endheader
time	ground_force1_vx	ground_force1_vy	ground_force1_vz	ground_force1_px	ground_force1_py	ground_force1_pz	ground_force2_vx	ground_force2_vy	ground_force2_vz	ground_force2_px	ground_force2_py	ground_force2_pz	ground_torque1_x	ground_torque1_y	ground_torque1_z	ground_torque2_x	ground_torque2_y	ground_torque2_z	
18.756596	-48.173787	446.872020	16.478607	0.196926	0.000000	0.075724	55.236900	474.133285	-25.267105	0.485940	0.000000	-0.112944	0.000000	14.371692	0.000000	0.000000	-9.658975	0.000000	
18.758260	-47.810525	437.314323	15.665751	0.197350	0.000000	0.075446	56.518484	480.889221	-26.215181	0.486236	0.000000	-0.112998	0.000000	13.974202	0.000000	0.000000	-10.217041	0.000000	
18.759931	-47.400023	427.700790	14.869737	0.197825	0.000000	0.075165	57.753201	487.557009	-27.153069	0.486473	0.000000	-0.113052	0.000000	13.576822	0.000000	0.000000	-10.774125	0.000000	
18.761593	-46.941975	418.039040	14.091292	0.198351	0.000000	0.074880	58.939485	494.136594	-28.079247	0.486650	0.000000	-0.113106	0.000000	13.179700	0.000000	0.000000	-11.328996	0.000000	
18.763259	-46.436180	408.336956	13.331101	0.198930	0.000000	0.074593	60.075927	500.628078	-28.992248	0.486766	0.000000	-0.113158	0.000000	12.782992	0.000000	0.000000	-11.880444	0.000000	
18.764930	-45.882545	398.602590	12.589805	0.199562	0.000000	0.074302	61.161273	507.031706	-29.890669	0.486820	0.000000	-0.113211	0.000000	12.386855	0.000000	0.000000	-12.427287	0.000000	
18.766596	-45.281100	388.844048	11.867999	0.200247	0.000000	0.074009	62.194423	513.347864	-30.773170	0.486811	0.000000	-0.113263	0.000000	11.991455	0.000000	0.000000	-12.968379	0.000000	
18.768259	-44.632016	379.069372	11.166234	0.200986	0.000000	0.073712	63.174428	519.577068	-31.638480	0.486740	0.000000	-0.113314	0.000000	11.596969	0.000000	0.000000	-13.502610	0.000000	
18.769931	-43.935615	369.286398	10.485014	0.201780	0.000000	0.073413	64.100485	525.719965	-32.485401	0.486604	0.000000	-0.113366	0.000000	11.203586	0.000000	0.000000	-14.028916	0.000000	
18.771592	-43.192401	359.502632	9.824794	0.202628	0.000000	0.073110	64.971929	531.777323	-33.312809	0.486404	0.000000	-0.113417	0.000000	10.811512	0.000000	0.000000	-14.546279	0.000000	
18.773266	-42.403078	349.725130	9.185980	0.203531	0.000000	0.072804	65.788237	537.750029	-34.119655	0.486139	0.000000	-0.113467	0.000000	10.420974	0.000000	0.000000	-15.053737	0.000000	
18.774925	-41.568571	339.960411	8.568930	0.204490	0.000000	0.072495	66.549013	543.639083	-34.904972	0.485809	0.000000	-0.113518	0.000000	10.032223	0.000000	0.000000	-15.550381	0.000000	
18.776594	-40.690054	330.214412	7.973947	0.205505	0.000000	0.072184	67.253993	549.445585	-35.667871	0.485414	0.000000	-0.113568	0.000000	9.645538	0.000000	0.000000	-16.035366	0.000000	
18.778260	-39.768960	320.492498	7.401283	0.206576	0.000000	0.071869	67.903035	555.170731	-36.407547	0.484953	0.000000	-0.113618	0.000000	9.261227	0.000000	0.000000	-16.507907	0.000000	
18.779934	-38.806996	310.799537	6.851135	0.207704	0.000000	0.071551	68.496118	560.815798	-37.123280	0.484427	0.000000	-0.113669	0.000000	8.879632	0.000000	0.000000	-16.967289	0.000000	
18.781594	-37.806139	301.140056	6.323645	0.208889	0.000000	0.071230	69.033337	566.382128	-37.814433	0.483836	0.000000	-0.113719	0.000000	8.501121	0.000000	0.000000	-17.412864	0.000000	
18.783265	-36.768625	291.518470	5.818898	0.210131	0.000000	0.070905	69.514903	571.871119	-38.480459	0.483179	0.000000	-0.113770	0.000000	8.126089	0.000000	0.000000	-17.844055	0.000000	
18.784929	-35.696925	281.939382	5.336925	0.211430	0.000000	0.070578	69.941137	577.284207	-39.120896	0.482458	0.000000	-0.113820	0.000000	7.754955	0.000000	0.000000	-18.260359	0.000000	
18.786593	-34.593697	272.407949	4.877699	0.212787	0.000000	0.070248	70.312467	582.622847	-39.735370	0.481673	0.000000	-0.113871	0.000000	7.388147	0.000000	0.000000	-18.661345	0.000000	
18.788259	-33.461735	262.930286	4.441139	0.214202	0.000000	0.069914	70.629426	587.888500	-40.323596	0.480823	0.000000	-0.113923	0.000000	7.026098	0.000000	0.000000	-19.046661	0.000000	
18.789927	-32.303892	253.513875	4.027113	0.215674	0.000000	0.069578	70.892646	593.082617	-40.885377	0.479911	0.000000	-0.113974	0.000000	6.669227	0.000000	0.000000	-19.416025	0.000000	
18.791595	-31.122997	244.167951	3.635437	0.217204	0.000000	0.069238	71.102860	598.206617	-41.420602	0.478937	0.000000	-0.114027	0.000000	6.317929	0.000000	0.000000	-19.769235	0.000000	
18.793260	-29.921766	234.903803	3.265883	0.218791	0.000000	0.068895	71.260891	603.261881	-41.929247	0.477901	0.000000	-0.114079	0.000000	5.972557	0.000000	0.000000	-20.106160	0.000000	
18.794925	-28.702708	225.734957	2.918181	0.220436	0.000000	0.068548	71.367653	608.249730	-42.411373	0.476806	0.000000	-0.114132	0.000000	5.633412	0.000000	0.000000	-20.426745	0.000000	
18.796596	-27.468047	216.677178	2.592025	0.222138	0.000000	0.068199	71.424144	613.171413	-42.867125	0.475652	0.000000	-0.114186	0.000000	5.300724	0.000000	0.000000	-20.731006	0.000000	
18.798260	-26.219647	207.748251	2.287078	0.223897	0.000000	0.067846	71.431443	618.028099	-43.296727	0.474440	0.000000	-0.114241	0.000000	4.974648	0.000000	0.000000	-21.019030	0.000000	
18.799930	-24.958979	198.967501	2.002979	0.225712	0.000000	0.067490	71.390702	622.820861	-43.700484	0.473172	0.000000	-0.114296	0.000000	4.655260	0.000000	0.000000	-21.290973	0.000000	
18.801593	-23.687114	190.355032	1.739346	0.227583	0.000000	0.067131	71.303147	627.550667	-44.078775	0.471850	0.000000	-0.114352	0.000000	4.342558	0.000000	0.000000	-21.547053	0.000000	
18.803264	-22.404766	181.930684	1.495781	0.229510	0.000000	0.066768	71.170064	632.218375	-44.432054	0.470476	0.000000	-0.114409	0.000000	4.036476	0.000000	0.000000	-21.787556	0.000000	
18.804927	-21.112384	173.712734	1.271875	0.231490	0.000000	0.066402	70.992802	636.824720	-44.760841	0.469051	0.000000	-0.114467	0.000000	3.736900	0.000000	0.000000	-22.012823	0.000000	
18.806592	-19.810302	165.716400	1.067202	0.233524	0.000000	0.066033	70.772762	641.370312	-45.065726	0.467577	0.000000	-0.114526	0.000000	3.443702	0.000000	0.000000	-22.223252	0.000000	
18.808264	-18.498942	157.952225	0.881326	0.235610	0.000000	0.065661	70.511395	645.855629	-45.347357	0.466056	0.000000	-0.114585	0.000000	3.156774	0.000000	0.000000	-22.419294	0.000000	
18.809933	-17.179065	150.424485	0.713790	0.237745	0.000000	0.065286	70.210193	650.281012	-45.606442	0.464490	0.000000	-0.114646	0.000000	2.876071	0.000000	0.000000	-22.601446	0.000000	
18.811598	-15.852061	143.129732	0.564111	0.239930	0.000000	0.064907	69.870689	654.646662	-45.843743	0.462883	0.000000	-0.114707	0.000000	2.601663	0.000000	0.000000	-22.770250	0.000000	
18.813266	-14.520252	136.055681	0.431773	0.242160	0.000000	0.064526	69.494446	658.952639	-46.060068	0.461235	0.000000	-0.114770	0.000000	2.333779	0.000000	0.000000	-22.926286	0.000000	
18.814929	-13.187195	129.180582	0.316209	0.244434	0.000000	0.064141	69.083054	663.198858	-46.256273	0.459550	0.000000	-0.114834	0.000000	2.072856	0.000000	0.000000	-23.070170	0.000000	
18.816594	-11.857948	122.473268	0.216793	0.246749	0.000000	0.063753	68.638127	667.385091	-46.433253	0.457830	0.000000	-0.114898	0.000000	1.819574	0.000000	0.000000	-23.202548	0.000000	
18.818259	-10.539266	115.894019	0.132823	0.249100	0.000000	0.063363	68.161296	671.510966	-46.591937	0.456077	0.000000	-0.114964	0.000000	1.574878	0.000000	0.000000	-23.324092	0.000000	
18.819930	-9.239707	109.396342	0.063505	0.251484	0.000000	0.062969	67.654204	675.575967	-46.733287	0.454295	0.000000	-0.115031	0.000000	1.339985	0.000000	0.000000	-23.435494	0.000000	
18.821591	-7.969594	102.929708	0.007949	0.253896	0.000000	0.062573	67.118501	679.579439	-46.858287	0.452485	0.000000	-0.115099	0.000000	1.116359	0.000000	0.000000	-23.537463	0.000000	
18.823262	-6.740833	96.443192	-0.034846	0.256328	0.000000	0.062175	66.555841	683.520589	-46.967946	0.450650	0.000000	-0.115168	0.000000	0.905672	0.000000	0.000000	-23.630722	0.000000	
18.824928	-5.566555	89.889874	-0.065990	0.258775	0.000000	0.061774	65.967878	687.398490	-47.063287	0.448794	0.000000	-0.115238	0.000000	0.709724	0.000000	0.000000	-23.715998	0.000000	
18.826594	-4.460586	83.231735	-0.086700	0.261226	0.000000	0.061371	65.356257	691.212086	-47.145345	0.446919	0.000000	-0.115309	0.000000	0.530350	0.000000	0.000000	-23.794026	0.000000	
18.828257	-3.436759	76.444692	-0.098284	0.263673	0.000000	0.060966	64.722616	694.960199	-47.215162	0.445027	0.000000	-0.115381	0.000000	0.369293	0.000000	0.000000	-23.865537	0.000000	
18.829927	-2.508098	69.523284	-0.102121	0.266102	0.000000	0.060560	64.068580	698.641535	-47.273781	0.443122	0.000000	-0.115454	0.000000	0.228072	0.000000	0.000000	-23.931259	0.000000	
18.831595	-1.685940	62.484496	-0.099634	0.268498	0.000000	0.060153	63.395754	702.254690	-47.322244	0.441205	0.000000	-0.115528	0.000000	0.107839	0.000000	0.000000	-23.991911	0.000000	
18.833261	-0.979053	55.370124	-0.092250	0.270842	0.000000	0.059745	62.705722	705.798160	-47.361587	0.439281	0.000000	-0.115603	0.000000	0.009249	0.000000	0.000000	-24.048201	0.000000	
18.834925	-0.392844	48.247172	-0.081359	0.273113	0.000000	0.059337	62.000046	709.270349	-47.392833	0.437351	0.000000	-0.115678	0.000000	-0.067648	0.000000	0.000000	-24.100820	0.000000	
18.836593	0.071243	41.205816	-0.068272	0.275281	0.000000	0.058929	61.280256	712.669579	-47.416992	0.435418	0.000000	-0.115755	0.000000	-0.123477	0.000000	0.000000	-24.150443	0.000000	
18.838258	0.416067	34.354744	-0.054176	0.277311	0.000000	0.058523	60.547854	715.994101	-47.435052	0.433485	0.000000	-0.115833	0.000000	-0.159558	0.000000	0.000000	-24.197721	0.000000	
18.839932	0.648767	27.813931	-0.040095	0.279158	0.000000	0.058119	59.804306	719.242105	-47.447982	0.431554	0.000000	-0.115911	0.000000	-0.177860	0.000000	0.000000	-24.243282	0.000000	
18.841595	0.780381	21.705372	-0.026865	0.000000	0.000000	0.000000	59.051040	722.411734	-47.456720	0.429628	0.000000	-0.115990	0.000000	-0.128315	0.000000	0.000000	-24.287728	0.000000	
18.843285	0.825098	16.142762	-0.015116	0.000000	0.000000	0.000000	58.289447	725.501090	-47.462179	0.427709	0.000000	-0.116070	0.000000	-0.120023	0.000000	0.000000	-24.331632	0.000000	
18.844932	0.799256	11.221506	-0.005268	0.000000	0.000000	0.000000	57.520874	728.508254	-47.465234	0.425800	0.000000	-0.116151	0.000000	-0.106021	0.000000	0.000000	-24.375535	0.000000	
18.846599	0.720200	7.010479	0.002460	0.000000	0.000000	0.000000	56.746624	731.431294	-47.466727	0.423902	0.000000	-0.116232	0.000000	-0.088265	0.000000	0.000000	-24.419947	0.000000	
18.848264	0.605143	3.546656	0.008025	0.000000	0.000000	0.000000	55.967956	734.268276	-47.467460	0.422019	0.000000	-0.116314	0.000000	-0.068608	0.000000	0.000000	-24.465343	0.000000	
18.849924	0.000000	0.000000	0.000000	0.000000	0.000000	0.000000	55.186077	737.017282	-47.468194	0.420151	0.000000	-0.116396	0.000000	0.000000	0.000000	0.000000	-24.512164	0.000000	
18.851599	0.000000	0.000000	0.000000	0.000000	0.000000	0.000000	54.402148	739.676420	-47.469646	0.418302	0.000000	-0.116479	0.000000	0.000000	0.000000	0.000000	-24.560813	0.000000	
18.853266	0.000000	0.000000	0.000000	0.000000	0.000000	0.000000	53.617279	742.243837	-47.472488	0.416472	0.000000	-0.116562	0.000000	0.000000	0.000000	0.000000	-24.611660	0.000000	
